<?xml version="1.0" standalone="no"?>
<!DOCTYPE svg PUBLIC "-//W3C//DTD SVG 20010904//EN"
 "http://www.w3.org/TR/2001/REC-SVG-20010904/DTD/svg10.dtd">
<svg version="1.0" xmlns="http://www.w3.org/2000/svg"
 width="2000.000000pt" height="2000.000000pt" viewBox="0 0 2000.000000 2000.000000"
 preserveAspectRatio="xMidYMid meet">

<g transform="translate(0.000000,2000.000000) scale(0.100000,-0.100000)"
fill="#000000" stroke="none">
<path d="M4250 16389 c-75 -14 -209 -87 -265 -143 -27 -28 -80 -97 -117 -153
-37 -56 -81 -111 -97 -122 -37 -27 -61 -78 -61 -134 0 -46 32 -134 323 -877
148 -379 165 -421 292 -750 49 -124 133 -340 187 -480 55 -140 117 -300 138
-355 22 -55 57 -145 78 -200 21 -55 109 -280 195 -500 85 -220 194 -499 241
-620 47 -121 98 -238 114 -260 32 -47 115 -100 169 -109 21 -3 727 -6 1570 -6
l1532 0 6 -47 c4 -27 16 -91 27 -143 84 -398 361 -752 733 -938 88 -44 245
-102 276 -102 17 0 19 -8 19 -61 l0 -60 -32 24 c-18 13 -48 29 -67 36 -46 15
-920 15 -975 0 -21 -6 -58 -29 -82 -51 -69 -64 -76 -100 -72 -385 3 -209 5
-242 22 -273 53 -99 102 -123 275 -130 l133 -5 80 -182 c85 -193 98 -209 129
-155 9 15 60 97 113 183 l97 157 137 4 c129 3 140 5 185 31 26 16 60 47 75 70
l27 42 3 252 3 252 45 -32 c45 -32 46 -32 187 -35 l142 -3 82 -187 c45 -103
88 -188 96 -190 9 -2 57 67 132 187 l117 190 143 3 c141 3 144 3 187 33 23 17
52 47 63 67 l20 36 -3 -232 c-3 -148 0 -249 7 -282 15 -66 58 -124 114 -152
39 -19 60 -22 174 -22 l130 0 84 -190 c59 -133 88 -189 99 -188 8 2 66 87 130
190 l115 187 130 1 c149 1 189 13 242 73 51 58 55 86 51 372 -3 245 -2 259 14
243 43 -43 79 -52 220 -56 l136 -4 78 -176 c78 -178 90 -202 104 -202 4 0 60
85 125 189 l117 189 136 4 c145 4 177 12 232 64 l25 23 -3 -252 c-2 -166 1
-265 8 -290 15 -51 84 -119 136 -135 23 -6 95 -12 160 -12 l119 0 82 -188 c45
-103 88 -188 95 -189 7 -2 63 78 129 185 l116 187 139 5 c152 6 176 13 232 72
56 56 64 105 60 375 -3 223 -4 241 -25 280 -31 57 -87 100 -147 113 -34 8
-198 10 -501 8 -484 -3 -462 -1 -535 -58 l-35 -28 3 252 c3 282 -1 305 -64
370 -62 64 -82 66 -574 66 -493 0 -508 -2 -572 -67 -62 -63 -68 -95 -68 -352
0 -124 4 -240 9 -257 l9 -31 -56 33 -56 34 -481 0 -482 0 -44 -23 c-27 -14
-57 -42 -78 -73 -19 -27 -31 -41 -28 -31 4 10 7 44 7 76 l0 57 71 13 c94 17
188 50 306 106 408 193 696 580 769 1035 8 52 16 96 18 97 2 2 3416 9 3416 7
0 -1 -22 -48 -49 -105 -219 -466 -212 -1008 19 -1469 283 -565 859 -920 1492
-920 282 0 503 51 753 175 170 85 293 174 435 315 210 209 362 467 434 739
l22 84 95 31 c117 39 191 79 231 125 l31 35 -7 149 c-7 167 -13 186 -78 241
-50 43 -119 66 -198 66 l-57 0 -18 83 c-22 102 -80 268 -129 367 -53 105 -129
230 -141 230 -34 -1 -32 -18 12 -85 108 -168 177 -338 227 -566 l6 -26 -98 -7
c-53 -4 -107 -10 -118 -12 -20 -5 -23 0 -34 68 -12 74 -56 225 -70 243 -4 6
-11 21 -15 34 -4 13 -16 39 -28 58 l-20 35 -14 -27 c-13 -24 -11 -34 16 -113
42 -123 61 -237 61 -366 0 -184 -36 -340 -116 -499 -52 -104 -87 -156 -162
-245 -48 -56 -58 -82 -32 -82 26 0 139 145 202 258 22 39 42 72 44 72 10 0
-112 -231 -159 -300 -238 -356 -535 -551 -904 -591 -237 -25 -477 19 -688 126
-121 62 -205 124 -310 230 -173 175 -281 376 -335 625 -11 46 -18 86 -16 87 2
2 13 -27 26 -64 31 -94 58 -143 76 -143 20 0 16 21 -21 108 -177 420 -61 923
287 1246 240 224 535 339 868 338 150 0 228 -11 382 -52 67 -18 92 -21 110
-13 20 9 12 14 -74 42 -140 44 -250 61 -408 61 -343 0 -637 -110 -894 -334
-161 -140 -302 -376 -357 -595 -24 -98 -49 -304 -49 -406 1 -418 197 -815 519
-1054 394 -291 950 -329 1354 -90 220 130 427 353 548 591 28 55 30 57 76 63
27 3 111 14 187 25 77 11 142 18 145 15 9 -10 -79 -257 -125 -347 -201 -400
-527 -683 -950 -827 -303 -103 -674 -110 -980 -18 -469 142 -836 466 -1036
915 -145 325 -177 711 -87 1064 43 172 150 406 220 483 20 22 49 65 65 95 37
68 220 254 332 335 218 158 479 264 739 301 157 22 415 15 556 -16 181 -38
353 -105 508 -195 45 -27 88 -45 105 -44 l29 0 -28 22 c-57 45 -215 129 -317
169 -364 142 -776 156 -1143 37 -221 -71 -471 -222 -642 -388 -41 -40 -75 -69
-75 -66 0 4 75 199 166 434 92 234 270 692 396 1016 126 325 253 651 283 725
29 75 182 468 341 875 307 791 310 799 269 862 -49 74 -266 331 -307 364 -60
47 -135 84 -213 104 -53 13 -717 15 -6200 14 -3421 -1 -6160 -5 -6185 -10z
m12383 -44 c127 -33 216 -101 336 -255 l62 -80 -6585 0 -6586 0 18 28 c115
183 206 263 346 303 58 17 389 18 6206 18 5417 1 6153 -1 6203 -14z m427 -390
c16 -8 37 -27 48 -42 45 -64 48 -52 -173 -619 -113 -291 -260 -668 -327 -839
-66 -170 -140 -362 -165 -425 -25 -63 -117 -299 -205 -525 -162 -417 -459
-1179 -530 -1360 -22 -55 -52 -135 -68 -177 -53 -141 -83 -184 -160 -224 -34
-18 -178 -19 -5010 -22 -3577 -2 -4989 0 -5026 8 -56 12 -124 62 -149 110 -8
15 -82 203 -166 416 -83 214 -170 439 -194 499 -24 61 -98 252 -166 425 -166
428 -169 435 -397 1020 -182 468 -411 1055 -563 1445 -33 83 -60 166 -61 185
-2 46 25 96 65 120 32 20 104 20 6625 20 5811 0 6596 -2 6622 -15z m-5631
-4487 c-1 -188 -43 -274 -164 -330 l-50 -23 -895 0 c-887 0 -895 0 -940 21
-50 23 -112 81 -138 128 -12 23 -17 64 -20 159 l-4 127 1106 0 1105 0 0 -82z
m7322 -373 c62 -21 129 -88 130 -129 0 -17 4 -78 8 -136 5 -66 5 -112 -1 -125
-43 -87 -324 -183 -626 -213 l-83 -8 6 25 c4 14 7 26 8 27 1 0 53 6 116 13
141 15 325 49 345 65 9 6 12 16 8 23 -6 10 -20 9 -62 -2 -63 -17 -309 -55
-356 -55 l-31 0 27 78 27 77 69 25 c61 21 86 24 209 24 123 0 147 -3 200 -23
33 -13 66 -28 72 -33 15 -12 43 -4 43 11 0 6 -19 20 -41 32 -135 68 -282 75
-510 23 l-26 -6 13 64 c8 34 14 102 14 150 0 83 1 88 23 93 82 18 364 18 418
0z m-5525 -94 c23 -10 54 -36 70 -57 l29 -37 3 -246 c2 -135 0 -261 -3 -279
-7 -40 -59 -101 -102 -118 -22 -10 -76 -14 -167 -14 l-134 0 -108 -174 c-60
-96 -112 -172 -116 -168 -4 4 -40 81 -80 172 l-73 165 -145 5 c-150 5 -183 14
-222 57 -43 47 -48 82 -48 330 0 210 3 243 19 279 18 40 56 75 102 93 14 6
218 10 479 10 424 1 458 -1 496 -18z m5051 -28 c-3 -10 -5 -2 -5 17 0 19 2 27
5 18 2 -10 2 -26 0 -35z m-10 -75 c-2 -13 -4 -5 -4 17 -1 22 1 32 4 23 2 -10
2 -28 0 -40z m-7505 10 c32 -19 52 -41 67 -71 20 -40 21 -60 21 -285 0 -264
-3 -284 -56 -334 -44 -41 -75 -48 -214 -48 -94 0 -132 -4 -142 -13 -7 -8 -58
-86 -113 -175 -55 -89 -103 -162 -106 -162 -3 0 -38 74 -78 164 -40 90 -78
169 -84 175 -7 7 -60 11 -146 11 -125 0 -137 2 -177 25 -28 16 -49 39 -63 68
-20 40 -21 60 -21 288 0 216 3 249 19 285 19 41 65 78 119 94 15 5 230 8 477
7 l450 -2 47 -27z m878 -43 c0 -2 -6 -8 -13 -14 -10 -8 -14 -7 -14 2 0 8 6 14
14 14 7 0 13 -1 13 -2z m2846 -477 c76 -53 79 -63 82 -333 4 -251 -1 -291 -39
-339 -40 -51 -72 -61 -229 -66 l-144 -5 -103 -164 c-57 -91 -107 -169 -111
-173 -5 -5 -44 70 -86 167 l-78 175 -134 0 c-143 0 -173 7 -218 48 -53 50 -56
70 -56 336 0 149 4 256 11 273 15 40 48 73 94 94 38 18 69 19 506 16 l466 -2
39 -27z m-2455 -33 c77 -55 79 -65 79 -353 0 -232 -2 -256 -20 -292 -11 -21
-34 -49 -52 -62 -30 -21 -45 -23 -180 -26 -122 -3 -149 -6 -161 -20 -7 -9 -58
-88 -112 -175 -54 -88 -102 -154 -107 -149 -4 4 -40 80 -78 167 -39 88 -76
163 -83 167 -7 4 -69 8 -139 8 -133 0 -168 7 -207 43 -55 51 -61 82 -61 337 0
207 3 240 19 275 21 47 70 92 109 101 15 3 32 7 37 9 6 2 213 3 462 2 l451 -2
43 -30z m-2524 -6 c34 -13 80 -55 99 -91 18 -34 20 -510 3 -555 -15 -40 -48
-73 -94 -94 -32 -15 -65 -19 -171 -19 l-132 0 -108 -174 c-60 -96 -112 -172
-115 -168 -4 4 -40 82 -80 175 l-73 167 -135 0 c-159 0 -204 15 -249 83 l-27
41 0 261 0 261 27 42 c16 23 45 50 65 61 36 19 59 20 500 21 303 0 471 -4 490
-11z"/>
<path d="M4020 15732 c0 -5 58 -163 129 -353 166 -441 643 -1717 941 -2514
127 -341 248 -665 269 -720 l39 -100 5031 0 5032 0 89 240 c50 132 110 294
134 360 25 66 135 361 244 655 110 294 246 659 302 810 55 151 114 309 130
350 16 41 72 192 125 335 54 143 153 409 221 592 68 183 124 337 124 343 0 7
-2025 10 -6405 10 -3523 0 -6405 -4 -6405 -8z m11038 -228 c13 -9 22 -26 22
-40 0 -14 -22 -96 -49 -182 -28 -87 -105 -330 -171 -542 -67 -212 -135 -425
-150 -475 -51 -163 -250 -796 -315 -1000 -35 -110 -120 -382 -190 -605 -69
-223 -129 -412 -134 -420 -4 -8 -19 -21 -32 -27 -35 -19 -7173 -18 -7209 0
-26 13 -28 20 -235 682 -53 171 -125 400 -160 510 -35 110 -124 394 -198 630
-75 237 -167 529 -205 650 -131 412 -221 700 -234 749 -12 46 -12 49 11 67 23
19 120 19 4625 19 4149 0 4604 -2 4624 -16z"/>
<path d="M6057 15093 c-2 -5 43 -161 100 -348 57 -187 176 -574 263 -860 87
-286 223 -734 303 -995 80 -261 155 -508 166 -548 l22 -72 3527 2 3526 3 19
60 c50 163 481 1581 567 1865 82 271 195 642 256 840 8 25 14 48 14 53 0 9
-8758 9 -8763 0z m2517 -195 c3 -13 6 -38 6 -55 l0 -33 -129 0 c-72 0 -132 3
-134 8 -3 4 -8 28 -11 55 l-7 47 134 0 c131 0 135 -1 141 -22z m-690 -4 c22
-21 20 -51 -3 -64 -29 -15 -1422 -14 -1455 2 -30 13 -42 43 -26 63 11 13 116
15 741 15 648 0 729 -2 743 -16z m2810 3 c24 -18 17 -48 -14 -64 -20 -10 -217
-12 -903 -10 l-879 2 -20 25 -20 24 22 18 c21 17 74 18 909 18 718 0 891 -3
905 -13z m2446 -2 c16 -20 4 -50 -26 -63 -32 -15 -1936 -17 -1963 -2 -29 15
-33 38 -11 60 20 20 37 20 1004 20 848 0 985 -2 996 -15z m-4530 -262 c0 -16
3 -38 6 -50 l6 -23 -136 0 c-126 0 -136 1 -136 19 0 10 -3 33 -6 50 l-6 31
136 0 136 0 0 -27z m-686 -4 c21 -17 24 -24 16 -40 -10 -18 -27 -19 -539 -19
-490 0 -530 1 -551 18 -24 19 -19 48 8 55 10 2 247 5 528 5 502 2 512 1 538
-19z m5340 8 c24 -18 14 -50 -20 -65 -18 -9 -371 -12 -1352 -12 -1417 1 -1362
-1 -1362 48 0 12 8 26 18 31 11 7 466 10 1358 11 1098 0 1343 -2 1358 -13z
m1204 2 c26 -10 28 -31 6 -53 -13 -14 -65 -16 -409 -16 -375 0 -395 1 -404 19
-14 26 13 48 64 54 74 8 720 5 743 -4z m-6500 -255 c27 -19 29 -50 3 -64 -13
-6 -249 -10 -698 -10 -713 0 -723 1 -731 45 -9 45 -9 45 718 45 604 0 688 -2
708 -16z m676 -15 c12 -61 17 -59 -124 -59 -104 0 -130 3 -130 14 0 7 -3 28
-6 45 l-6 31 130 0 130 0 6 -31z m5757 21 c28 -16 24 -47 -11 -65 -26 -13
-226 -15 -1739 -15 -1098 0 -1719 4 -1736 10 -37 14 -43 39 -16 62 22 17 87
18 1753 18 1173 0 1736 -3 1749 -10z m-5727 -252 c3 -13 6 -33 6 -45 0 -23 -2
-23 -125 -23 l-125 0 -5 28 c-15 68 -26 62 115 62 124 0 128 -1 134 -22z
m-650 -7 c20 -22 12 -47 -17 -55 -12 -3 -279 -6 -594 -6 -583 0 -614 2 -628
38 -16 42 -13 42 620 42 574 0 603 -1 619 -19z m2211 5 c23 -17 14 -43 -20
-56 -29 -11 -256 -12 -294 -1 -13 3 -29 14 -35 24 -9 15 -7 21 8 33 27 20 313
20 341 0z m4110 -16 c0 -16 -8 -29 -25 -37 -20 -10 -422 -13 -1970 -13 -1070
0 -1955 3 -1967 6 -27 7 -39 40 -23 60 11 12 271 14 1999 12 l1986 -3 0 -25z
m-5644 -217 c5 -15 9 -36 7 -47 -3 -19 -11 -21 -119 -24 -64 -2 -119 0 -122 5
-2 4 -8 27 -12 51 l-7 42 121 0 121 0 11 -27z m-635 -7 c40 -55 29 -56 -684
-56 -683 0 -697 1 -697 45 0 17 9 21 50 25 28 3 335 5 683 5 616 0 634 -1 648
-19z m2405 14 c10 -6 19 -19 19 -30 0 -11 -9 -24 -19 -30 -13 -7 -262 -10
-738 -10 -634 0 -721 2 -741 16 -26 18 -28 39 -4 53 24 14 1456 15 1483 1z
m2243 -3 c24 -17 14 -53 -17 -61 -12 -3 -394 -6 -848 -6 -883 0 -870 -1 -855
48 4 11 15 23 24 25 9 3 391 5 848 6 675 1 834 -1 848 -12z m-3980 -238 c12
-61 16 -59 -114 -59 l-120 0 -5 28 c-15 68 -25 62 110 62 l123 0 6 -31z m-630
8 c10 -7 16 -22 14 -33 -3 -18 -16 -19 -427 -19 -379 0 -425 2 -434 16 -6 9
-7 24 -4 33 6 14 46 16 420 16 326 0 417 -3 431 -13z m4060 7 c19 -7 21 -35 4
-52 -9 -9 -372 -12 -1574 -12 -859 0 -1569 3 -1578 6 -19 7 -21 35 -4 52 9 9
372 12 1574 12 859 0 1569 -3 1578 -6z m707 -4 c24 -13 24 -29 2 -46 -13 -10
-64 -13 -194 -14 -151 0 -179 2 -190 16 -11 14 -10 19 10 35 21 17 41 19 188
19 94 0 173 -4 184 -10z m-4107 -231 c12 -61 16 -59 -114 -59 -95 0 -120 3
-120 14 0 7 -3 28 -6 45 l-6 31 120 0 120 0 6 -31z m-618 7 c15 -12 17 -18 8
-33 -11 -17 -46 -18 -663 -21 -438 -1 -658 1 -672 8 -19 10 -26 40 -12 53 3 4
302 7 663 7 556 0 659 -2 676 -14z m1768 8 c9 -3 16 -16 16 -29 0 -13 -7 -26
-16 -29 -28 -11 -854 -7 -875 4 -10 6 -19 16 -19 23 0 36 17 37 451 37 235 0
434 -3 443 -6z m3234 -21 c2 -14 -4 -26 -17 -32 -14 -8 -451 -10 -1462 -9
-1333 3 -1443 4 -1452 20 -8 12 -7 21 2 32 12 15 150 16 1470 14 l1456 -3 3
-22z m696 21 c22 -8 20 -41 -3 -54 -21 -11 -278 -14 -305 -4 -21 8 -20 40 2
53 18 11 280 15 306 5z m-5063 -203 c4 -1 9 -16 11 -35 5 -43 3 -44 -129 -38
-91 4 -103 6 -103 22 0 10 -3 25 -6 34 -5 13 8 16 83 18 75 3 112 2 144 -1z
m-600 -20 c20 -16 21 -21 10 -35 -12 -14 -68 -16 -543 -16 -346 0 -536 4 -549
10 -21 12 -26 46 -6 53 6 3 249 6 538 6 502 1 528 0 550 -18z m1156 13 c29 -8
38 -35 17 -51 -22 -16 -256 -18 -285 -3 -24 13 -25 36 -1 49 18 11 232 15 269
5z m3437 -17 c9 -15 7 -21 -8 -33 -17 -12 -233 -14 -1547 -14 -1394 0 -1529 1
-1544 16 -15 15 -15 18 1 35 17 19 60 19 1552 17 1468 -3 1535 -4 1546 -21z
m-3954 -217 l0 -40 -115 0 c-103 0 -115 2 -115 18 0 9 -3 27 -6 40 -6 22 -6
22 115 22 l121 0 0 -40z m-600 15 c7 -8 10 -22 6 -30 -5 -13 -72 -15 -539 -15
-563 0 -568 0 -551 44 6 14 56 16 539 16 459 0 534 -2 545 -15z m3160 5 c12
-7 12 -13 4 -27 -10 -17 -37 -18 -374 -18 -337 0 -364 1 -374 18 -8 14 -8 20
4 27 9 6 161 10 370 10 209 0 361 -4 370 -10z m2646 -5 c4 -8 1 -22 -6 -30
-11 -13 -152 -15 -1117 -15 -976 0 -1104 2 -1109 15 -4 8 -1 22 6 30 11 13
152 15 1117 15 976 0 1104 -2 1109 -15z m-5770 -197 c14 -14 15 -20 4 -32 -11
-14 -79 -16 -577 -16 -370 0 -571 4 -584 10 -24 13 -25 36 -1 49 11 7 206 10
579 8 514 -2 564 -3 579 -19z m588 0 c15 -58 14 -58 -96 -58 -57 0 -109 4
-115 8 -7 4 -16 22 -19 40 l-6 32 115 0 c110 0 115 -1 121 -22z m5107 12 c10
-6 19 -17 19 -25 0 -8 -9 -19 -19 -25 -30 -16 -3883 -14 -3899 2 -19 19 -14
38 11 48 32 13 3863 13 3888 0z m-4140 -16 c11 -14 10 -18 -6 -30 -14 -10 -56
-14 -165 -14 -109 0 -151 4 -165 14 -16 12 -17 16 -6 30 11 13 38 16 171 16
133 0 160 -3 171 -16z m-939 -199 c2 -20 2 -38 -1 -40 -2 -3 -53 -5 -112 -5
-102 0 -107 1 -113 23 -15 57 -15 57 108 57 l114 0 4 -35z m-587 11 c16 -12
17 -16 6 -30 -12 -14 -56 -16 -383 -16 -235 0 -376 4 -389 10 -22 12 -25 36
-6 43 6 3 179 6 383 6 301 1 374 -2 389 -13z m3335 4 c12 -7 12 -13 4 -27 -11
-17 -75 -18 -1246 -21 -1306 -2 -1282 -3 -1265 42 6 15 105 16 1249 16 773 0
1249 -4 1258 -10z m524 4 c21 -8 20 -24 -1 -40 -27 -20 -233 -19 -259 1 -19
15 -19 15 0 30 15 11 48 15 132 15 62 0 119 -3 128 -6z m-3825 -191 c15 -13
18 -22 11 -33 -8 -13 -89 -15 -608 -18 -577 -2 -600 -2 -623 17 -20 16 -21 21
-10 35 12 14 73 16 611 16 555 0 599 -1 619 -17z m575 -5 c13 -49 13 -49 -106
-46 l-113 3 -3 33 -3 32 109 0 c105 0 110 -1 116 -22z m4030 16 c25 -10 19
-43 -10 -54 -16 -6 -699 -10 -1879 -10 -1180 0 -1863 4 -1879 10 -30 11 -34
34 -8 49 19 11 3747 16 3776 5z"/>
<path d="M18723 10678 c-18 -11 -33 -26 -33 -34 0 -18 12 -18 56 1 24 10 34
20 32 31 -4 25 -18 25 -55 2z"/>
<path d="M12716 10767 c-38 -27 2 -95 42 -71 24 16 28 55 6 71 -10 7 -21 13
-24 13 -3 0 -14 -6 -24 -13z"/>
<path d="M12712 10568 c-15 -15 -16 -50 -1 -65 7 -7 8 -22 1 -47 -10 -33 -9
-36 11 -36 18 0 26 11 40 49 26 74 19 111 -23 111 -9 0 -21 -5 -28 -12z"/>
<path d="M10094 10780 c-40 -16 -54 -49 -54 -128 0 -65 -2 -74 -20 -79 -13 -3
-20 -14 -20 -29 0 -17 6 -24 20 -24 18 0 20 -7 20 -69 0 -98 13 -128 61 -141
22 -6 44 -8 49 -5 19 12 10 45 -15 55 -24 9 -25 14 -25 83 0 40 -5 78 -10 83
-8 8 -8 19 0 38 5 15 10 56 10 92 0 60 2 65 26 74 19 7 25 16 22 33 -3 24 -30
32 -64 17z"/>
<path d="M10320 10760 c0 -20 5 -30 15 -30 28 0 36 -40 36 -185 0 -145 -8
-185 -36 -185 -10 0 -15 -10 -15 -30 0 -34 1 -34 51 -20 46 13 59 42 59 131 0
62 2 71 20 76 13 3 20 14 20 28 0 14 -7 25 -20 28 -18 5 -20 14 -20 82 0 89
-8 109 -51 124 -50 17 -59 14 -59 -19z"/>
<path d="M13860 10105 l0 -25 115 0 115 0 0 25 0 25 -115 0 -115 0 0 -25z"/>
<path d="M13860 9985 l0 -25 115 0 115 0 0 25 0 25 -115 0 -115 0 0 -25z"/>
<path d="M11275 10186 c-31 -13 -55 -51 -55 -86 0 -13 -7 -20 -20 -20 -15 0
-20 -7 -20 -25 0 -18 5 -25 20 -25 19 0 20 -7 20 -111 l0 -110 33 3 32 3 3
108 3 107 34 0 c31 0 35 3 35 25 0 22 -4 25 -34 25 -41 0 -47 7 -35 38 6 17
16 22 43 22 26 0 35 5 39 21 4 15 -1 22 -19 30 -32 12 -42 11 -79 -5z"/>
<path d="M11475 10083 c-110 -28 -131 -193 -32 -253 72 -44 178 -16 212 57 53
112 -53 228 -180 196z m105 -75 c25 -27 27 -88 3 -117 -10 -11 -32 -24 -50
-27 -27 -5 -37 -1 -64 25 -27 28 -31 37 -26 69 4 20 16 45 28 55 30 24 84 22
109 -5z"/>
<path d="M11730 9950 l0 -140 30 0 30 0 0 63 c0 109 26 157 85 157 10 0 15 10
15 30 0 35 -18 39 -64 15 -35 -18 -36 -18 -36 0 0 10 -10 15 -30 15 l-30 0 0
-140z"/>
<path d="M8840 9980 l0 -190 30 0 30 0 0 190 0 190 -30 0 -30 0 0 -190z"/>
<path d="M8556 10039 c-93 -73 -65 -220 47 -250 48 -13 104 -4 137 21 24 18
24 19 6 39 -17 18 -21 19 -39 6 -44 -31 -137 -7 -137 35 0 6 42 10 105 10
l105 0 0 25 c0 39 -25 89 -55 113 -38 30 -131 31 -169 1z m142 -56 l27 -28
-42 -3 c-24 -2 -62 -2 -85 0 l-43 3 27 28 c18 18 38 27 58 27 20 0 40 -9 58
-27z"/>
<path d="M9013 10050 c-43 -18 -59 -93 -25 -123 10 -9 42 -21 72 -28 68 -14
85 -26 68 -46 -12 -15 -96 -15 -130 1 -12 5 -20 1 -28 -14 -16 -29 -5 -38 63
-52 50 -11 62 -10 104 8 58 24 76 60 52 102 -14 26 -44 40 -122 57 -32 6 -47
33 -26 46 18 11 71 11 102 0 21 -8 26 -6 35 15 10 20 8 25 -8 34 -23 12 -126
12 -157 0z"/>
<path d="M9289 10037 c-21 -14 -39 -38 -48 -63 -40 -116 63 -218 187 -185 53
15 71 36 49 58 -13 14 -21 14 -42 5 -40 -18 -88 -15 -113 8 -12 12 -22 25 -22
30 0 6 45 10 105 10 l105 0 0 31 c0 44 -25 92 -59 112 -43 25 -120 22 -162 -6z
m141 -47 c33 -33 24 -40 -55 -40 -43 0 -75 4 -75 10 0 23 41 50 75 50 22 0 43
-8 55 -20z"/>
<path d="M16836 11969 c-429 -63 -777 -379 -860 -781 -20 -96 -21 -262 -2
-360 77 -400 400 -709 826 -789 36 -7 126 -13 200 -12 111 0 154 5 245 27 359
87 649 359 747 701 20 70 23 102 22 250 0 156 -2 178 -27 258 -15 49 -34 102
-42 117 l-15 29 -48 -15 c-86 -27 -341 -82 -435 -95 l-93 -12 33 -31 c94 -89
50 -242 -90 -311 -120 -58 -355 -94 -431 -65 -43 16 -31 36 29 49 32 7 73 26
98 45 124 94 52 223 -132 234 -42 2 -82 9 -88 14 -42 33 19 104 132 154 39 18
65 35 65 45 0 8 -20 25 -45 37 -130 63 -185 173 -136 270 22 43 122 144 201
203 30 22 57 43 59 45 8 7 -152 2 -213 -7z"/>
<path d="M7240 10919 c-44 -18 -90 -59 -113 -102 -21 -40 -22 -55 -25 -290 -4
-279 3 -319 61 -375 53 -52 92 -62 230 -62 88 0 127 -4 134 -12 5 -7 44 -93
87 -190 45 -102 84 -178 92 -178 7 0 61 78 120 173 58 94 113 180 122 190 13
14 34 17 144 17 146 0 180 11 236 74 49 56 54 91 50 369 l-3 252 -26 40 c-34
51 -56 70 -102 90 -31 13 -105 15 -509 14 -286 0 -483 -4 -498 -10z m999 -43
c41 -22 89 -81 96 -118 3 -18 5 -141 3 -274 l-3 -241 -27 -40 c-42 -63 -81
-77 -243 -83 l-139 -5 -103 -165 c-57 -91 -107 -166 -111 -168 -5 -1 -42 73
-83 165 l-74 168 -140 5 c-125 5 -145 8 -184 30 -30 17 -52 39 -68 69 -22 43
-23 52 -23 287 0 257 3 280 48 328 52 56 48 55 555 56 390 0 473 -2 496 -14z"/>
<path d="M7540 10500 l0 -240 60 0 c57 0 60 1 60 25 0 20 -5 25 -25 25 l-25 0
0 190 0 190 25 0 c20 0 25 5 25 25 0 24 -3 25 -60 25 l-60 0 0 -240z"/>
<path d="M7820 10715 c0 -21 5 -25 30 -25 l30 0 0 -190 0 -190 -30 0 c-25 0
-30 -4 -30 -25 0 -24 2 -25 65 -25 l65 0 0 240 0 240 -65 0 c-63 0 -65 -1 -65
-25z"/>
<path d="M1310 10790 c0 -5 5 -10 10 -10 6 0 10 5 10 10 0 6 -4 10 -10 10 -5
0 -10 -4 -10 -10z"/>
<path d="M4553 10533 c-19 -7 -16 -27 7 -41 18 -11 20 -10 20 18 0 30 -4 33
-27 23z"/>
<path d="M5985 10451 c-69 -17 -118 -56 -149 -118 -14 -27 -16 -73 -16 -298 0
-289 1 -297 59 -358 49 -53 75 -61 225 -67 l139 -5 81 -185 c49 -111 87 -185
96 -185 7 0 65 84 129 187 l116 188 119 0 c65 0 136 5 157 11 50 16 105 62
130 110 19 38 20 56 17 313 l-3 273 -27 41 c-15 22 -49 54 -75 69 l-48 28
-460 2 c-253 1 -473 -2 -490 -6z m953 -46 c44 -19 78 -49 100 -90 14 -25 18
-69 20 -256 4 -252 -2 -290 -51 -346 -48 -55 -78 -63 -229 -63 l-133 0 -109
-176 c-60 -96 -112 -171 -116 -167 -4 4 -38 78 -75 163 -38 85 -72 161 -78
168 -7 8 -48 12 -141 12 -157 0 -199 14 -243 81 l-28 42 -3 236 c-4 255 1 289
45 342 58 69 58 69 556 69 382 0 453 -2 485 -15z"/>
<path d="M6347 10233 c-26 -26 12 -80 47 -67 21 8 30 42 16 59 -13 15 -51 20
-63 8z"/>
<path d="M6537 10210 c-15 -12 -29 -36 -33 -55 -4 -25 -11 -35 -25 -35 -14 0
-19 -7 -19 -25 0 -18 5 -25 20 -25 18 0 20 -8 22 -112 l3 -113 33 -3 32 -3 0
115 0 116 35 0 c31 0 35 3 35 25 0 23 -4 25 -41 25 -37 0 -40 2 -33 23 9 30
24 38 55 31 21 -4 28 -1 32 18 4 13 1 26 -6 30 -23 15 -84 8 -110 -12z"/>
<path d="M6350 9980 l0 -140 30 0 30 0 0 140 0 140 -30 0 -30 0 0 -140z"/>
<path d="M15910 10429 c0 -15 52 -87 68 -94 26 -10 23 25 -5 64 -26 38 -63 55
-63 30z"/>
<path d="M1240 10293 c0 -39 2 -44 15 -33 8 7 15 25 15 40 0 16 -7 30 -15 34
-12 4 -15 -4 -15 -41z"/>
<path d="M16094 10218 c-9 -15 53 -70 161 -142 218 -147 455 -218 725 -219
165 -1 261 12 403 54 103 31 217 83 217 99 0 21 -21 18 -97 -14 -352 -149
-736 -138 -1079 29 -101 49 -250 148 -283 188 -16 20 -37 22 -47 5z"/>
<path d="M4517 9932 c-10 -10 -17 -25 -17 -32 0 -25 -73 -226 -108 -295 -199
-397 -546 -699 -960 -834 -170 -56 -271 -72 -472 -78 -160 -4 -202 -2 -315 17
-459 78 -866 343 -1111 723 -27 42 -52 77 -55 77 -21 0 -16 -38 12 -84 146
-237 388 -457 656 -594 226 -115 439 -170 698 -179 292 -11 538 38 795 159
335 157 636 456 791 784 44 93 119 309 119 341 0 18 -14 16 -33 -5z"/>
<path d="M1685 9640 c-10 -11 -25 -20 -33 -20 -20 0 -10 -22 54 -111 73 -101
203 -232 312 -314 109 -82 336 -195 467 -234 289 -84 620 -78 903 15 110 36
264 113 373 186 91 61 291 247 337 314 l21 31 -47 -24 c-87 -45 -164 -12 -213
90 l-27 59 -18 -38 c-44 -92 -143 -157 -239 -157 -67 0 -105 15 -149 62 l-29
30 -61 -63 c-69 -72 -161 -135 -245 -168 -46 -18 -76 -22 -166 -22 -104 0
-115 2 -205 38 -83 33 -102 38 -152 33 -61 -5 -79 -14 -213 -103 -124 -83
-220 -99 -277 -47 -36 32 -58 89 -58 147 0 55 0 55 -26 46 -36 -14 -89 -12
-127 4 -69 29 -137 131 -145 217 -5 54 -10 58 -37 29z"/>
<path d="M5990 9120 c-8 -5 -52 -10 -97 -10 l-83 0 0 -1959 c0 -1777 1 -1959
16 -1965 9 -3 202 -6 430 -6 l414 0 0 -567 0 -566 -74 -126 c-65 -112 -83
-155 -160 -383 -47 -142 -86 -260 -86 -262 0 -2 7 -6 15 -10 19 -7 26 10 121
293 65 196 85 243 150 353 l74 127 0 838 0 838 -34 160 c-34 159 -50 259 -61
388 -5 60 -4 67 13 67 10 0 22 12 29 30 6 16 25 38 42 47 34 20 35 22 22 42
-8 12 -14 11 -41 -6 -17 -11 -41 -33 -51 -49 l-20 -29 6 90 c14 201 65 458
102 515 9 14 64 85 121 158 l105 132 51 0 51 0 112 134 c126 150 143 160 219
125 22 -10 43 -19 46 -19 3 0 17 18 32 40 23 35 24 41 11 46 -9 4 -25 -2 -38
-14 -16 -15 -27 -18 -37 -12 -8 5 -27 10 -42 10 -38 0 -35 17 11 68 32 35 45
42 75 42 50 0 101 -23 121 -54 38 -57 0 -171 -101 -306 -53 -70 -55 -74 -99
-259 -25 -103 -45 -194 -45 -202 0 -8 27 -100 61 -205 l62 -192 49 -23 c37
-17 51 -20 57 -11 13 21 70 606 71 720 0 55 14 100 106 350 72 198 124 320
165 394 32 59 68 128 80 155 39 93 94 129 186 124 34 -2 90 -56 109 -106 27
-72 16 -141 -44 -272 -49 -108 -53 -124 -92 -355 -22 -134 -44 -258 -48 -276
-4 -18 -4 -144 -1 -280 4 -136 7 -347 8 -469 1 -216 2 -223 21 -223 18 0 20 7
20 85 0 72 3 85 16 85 15 0 16 -12 10 -112 -4 -62 -10 -128 -13 -145 -4 -25
-1 -34 11 -39 9 -4 19 -4 21 -2 3 2 10 74 16 159 6 85 26 305 45 489 l35 335
93 330 c51 182 99 359 105 395 16 81 46 137 91 168 30 21 43 23 89 18 77 -9
118 -32 146 -81 23 -38 25 -52 25 -161 0 -115 -24 -375 -54 -594 -10 -68 -17
-243 -21 -500 -5 -360 -3 -426 20 -745 14 -192 25 -357 26 -365 1 -29 160 455
174 530 24 132 45 203 90 296 78 161 175 241 307 251 54 4 67 2 91 -17 36 -28
35 -49 -8 -200 l-35 -124 0 -216 0 -217 -66 -229 c-36 -126 -80 -290 -99 -365
-48 -195 -103 -318 -293 -649 -150 -264 -195 -336 -238 -383 -456 -490 -566
-612 -595 -663 -72 -123 -169 -352 -292 -684 -89 -240 -88 -235 -63 -235 15 0
31 33 82 174 119 326 233 595 303 716 31 54 142 182 320 370 278 294 311 333
390 464 45 72 81 133 81 135 0 3 20 39 45 81 131 222 268 510 281 595 l7 40
988 0 989 0 0 -24 c0 -68 88 -270 159 -366 116 -157 284 -321 556 -540 253
-204 341 -279 402 -343 l58 -62 205 -647 c112 -357 207 -648 210 -648 3 0 11
4 18 9 11 7 9 23 -11 87 -14 44 -102 320 -195 614 -94 294 -176 554 -183 578
-15 53 -98 134 -334 325 -414 338 -563 476 -671 622 -122 166 -163 274 -194
510 -35 273 -74 437 -151 651 -39 106 -38 111 37 188 24 24 44 49 44 55 0 18
-20 23 -37 9 -15 -11 -16 -11 -9 7 5 11 21 57 36 103 21 66 29 80 39 69 6 -8
22 -12 36 -10 13 3 45 -2 71 -11 63 -21 96 -20 128 5 21 17 26 29 26 67 0 82
-10 122 -31 122 -21 0 -23 -15 -9 -77 13 -57 -1 -93 -36 -93 -14 0 -51 7 -81
16 -30 9 -68 13 -84 10 -34 -7 -34 -9 -14 104 13 75 19 89 50 118 29 27 42 32
82 32 62 -1 120 -27 162 -75 77 -88 103 -215 79 -390 -14 -104 -14 -112 3
-147 46 -92 89 -230 128 -411 19 -88 20 -100 6 -113 -17 -18 -21 -168 -5 -194
19 -30 29 7 30 110 1 58 8 130 15 160 8 30 30 132 50 225 21 94 42 176 47 183
7 8 4 26 -10 60 -11 26 -27 75 -36 108 -24 94 -56 162 -303 654 -230 457 -337
692 -441 973 -49 133 -56 161 -57 227 0 89 21 134 76 164 27 15 45 17 82 12
75 -11 123 -56 181 -166 157 -305 304 -536 529 -832 84 -112 204 -270 267
-353 62 -82 114 -152 117 -154 10 -12 140 133 203 225 59 87 67 104 54 114
-11 10 -18 7 -37 -16 l-22 -29 -5 220 c-4 173 -2 240 11 315 31 188 32 200 11
200 -16 0 -21 -12 -31 -77 -7 -43 -14 -91 -17 -106 l-6 -28 -30 38 c-40 49
-75 125 -89 191 -7 36 -15 52 -26 52 -13 0 -15 -9 -10 -54 7 -71 55 -171 112
-234 l46 -51 -21 -40 c-27 -53 -45 -61 -149 -68 -99 -7 -128 3 -179 61 -33 38
-49 102 -37 154 9 42 188 321 227 354 38 33 108 58 160 58 86 0 248 -77 395
-186 l72 -54 83 0 c185 0 287 -48 453 -209 l70 -68 75 -6 c41 -4 95 -13 120
-22 48 -17 73 -47 143 -172 30 -52 87 -182 87 -196 0 -2 -21 -2 -47 0 -50 4
-80 -7 -69 -26 4 -6 25 -11 46 -11 29 0 48 -7 72 -29 32 -28 32 -29 32 -127 0
-55 -7 -137 -16 -184 -9 -47 -24 -146 -33 -220 -8 -74 -20 -162 -25 -196 -6
-36 -10 -425 -10 -942 l0 -882 119 -422 c176 -623 210 -740 213 -743 2 -1 10
0 19 4 14 5 6 44 -66 296 -45 160 -119 420 -164 578 l-81 288 0 364 0 365 554
0 c305 0 561 3 570 6 14 5 16 27 16 142 l0 137 43 -46 c58 -64 119 -96 202
-109 46 -7 286 -10 690 -8 577 3 620 4 623 20 3 16 -39 18 -665 20 l-668 3
-57 28 c-61 30 -105 74 -140 140 l-23 42 -3 1550 c-3 1772 -10 1618 87 1716
98 98 -93 89 1996 89 1640 0 1837 -2 1885 -16 43 -13 54 -13 61 -2 6 9 -3 19
-29 33 -37 20 -55 20 -1917 20 l-1880 0 -50 -25 c-27 -13 -74 -48 -102 -77
l-53 -54 0 160 0 159 -62 7 c-101 12 -9001 16 -9018 5z m9040 -1981 l0 -1919
-550 0 -550 0 0 100 0 100 150 0 150 0 0 260 0 260 -150 0 -150 0 0 35 0 35
465 0 465 0 0 260 0 260 -446 0 c-403 0 -446 2 -440 16 3 9 6 24 6 35 0 18 9
19 135 19 l135 0 0 260 0 260 -143 0 -143 0 -11 30 -11 30 84 0 84 0 0 260 0
260 -262 -2 -263 -3 -3 -97 c-3 -93 -4 -98 -24 -98 -12 0 -32 10 -45 22 -20
19 -23 31 -23 100 l0 78 -90 0 c-73 0 -99 4 -132 21 -23 12 -58 27 -77 34
l-36 14 58 0 57 1 0 260 0 260 -260 0 -260 0 0 -190 c0 -104 -3 -190 -6 -190
-5 0 -66 34 -82 46 -2 1 -3 77 -3 168 l2 166 -266 0 -265 0 0 -252 c0 -251 0
-251 -25 -294 l-26 -44 -167 -2 -167 -3 0 -103 c0 -56 -2 -102 -5 -102 -3 0
-24 30 -48 67 -30 48 -42 77 -42 104 0 33 -3 38 -27 41 -18 2 -33 14 -46 36
l-19 32 241 0 241 0 0 260 0 260 -260 0 -260 0 0 -227 -1 -228 -44 80 -45 80
0 148 0 147 -260 0 -260 0 0 -260 0 -259 72 -3 72 -3 38 -100 38 -100 0 -192
0 -193 85 0 c84 0 85 0 100 -30 l16 -30 -31 0 -30 0 0 -216 0 -217 -34 -38
c-19 -21 -38 -53 -41 -72 -6 -30 -11 -35 -43 -41 -21 -3 -61 -6 -89 -6 l-53 0
0 -260 c0 -220 2 -260 14 -260 17 0 21 -5 30 -42 l6 -28 -810 0 -810 0 0 35 0
35 125 0 125 0 0 260 0 260 -59 0 c-87 0 -117 9 -130 36 -6 14 -11 27 -11 29
0 3 106 5 235 5 l235 0 -2 258 -3 257 -262 3 -263 2 0 -245 0 -245 -45 0 -45
0 0 245 0 245 -260 0 -260 0 0 -262 0 -263 197 3 198 3 -30 -23 c-16 -12 -47
-39 -67 -59 -36 -35 -38 -36 -38 -13 0 23 -2 24 -82 24 -46 0 -113 3 -150 7
l-68 6 0 221 c0 122 5 265 12 319 l12 97 198 0 198 0 0 260 0 260 -172 2 -173
3 0 30 c0 29 1 30 60 35 l60 5 3 258 3 257 -266 0 -265 0 0 -204 c0 -154 -4
-214 -15 -245 -8 -23 -17 -64 -21 -91 l-7 -50 -51 0 c-71 0 -126 11 -126 24 1
33 18 40 108 45 l22 1 0 260 0 260 -260 0 -260 0 0 -192 0 -191 -29 -51 c-15
-28 -36 -75 -46 -104 l-17 -54 -127 7 c-141 6 -142 6 -513 -1 l-268 -5 0 -251
0 -251 -26 -34 -25 -33 -395 0 -394 0 0 -265 0 -265 296 0 296 0 -6 -22 c-3
-13 -6 -29 -6 -35 0 -10 -65 -13 -290 -13 l-290 0 0 -260 0 -260 305 0 305 0
1 -22 c0 -13 0 -146 -1 -295 l-1 -273 30 0 31 0 0 -100 0 -100 -410 0 -410 0
0 1920 0 1920 4573 2 c2514 2 4580 1 4590 -1 16 -3 17 -103 17 -1922z m-6710
891 l0 -220 -26 0 c-29 0 -29 -1 1 80 37 99 1 236 -76 291 -64 45 -184 32
-239 -26 -12 -13 -39 -59 -60 -102 l-39 -78 0 138 -1 137 220 0 220 0 0 -220z
m620 0 l0 -220 -43 0 c-42 0 -44 1 -56 40 -14 49 -60 102 -104 123 -17 9 -59
18 -92 22 -52 6 -67 3 -107 -18 l-48 -24 0 148 0 149 225 0 225 0 0 -220z
m2163 209 c-48 -14 -100 -81 -114 -146 -13 -65 -7 -117 26 -213 l24 -70 -45 0
-44 0 0 220 0 220 93 -1 c73 -1 86 -3 60 -10z m287 -71 c-1 -66 -3 -79 -12
-63 -30 56 -106 117 -168 136 -15 4 14 8 78 8 l102 1 0 -82z m610 -138 l0
-220 -220 0 -220 0 0 220 0 220 220 0 220 0 0 -220z m620 84 l0 -136 -22 7
c-101 31 -127 36 -183 31 -104 -10 -168 -52 -232 -152 -9 -15 -12 23 -12 184
l-1 202 225 0 225 0 0 -136z m610 -84 l0 -220 -175 0 -176 0 -44 33 -44 32 -1
188 0 187 220 0 220 0 0 -220z m-5916 -382 c-4 -7 -70 -88 -147 -180 l-139
-168 -53 0 c-47 0 -56 -4 -74 -27 l-20 -28 -1 208 0 207 221 0 c173 0 219 -3
213 -12z m416 9 c0 -4 -66 -186 -118 -327 l-39 -105 -42 -3 -41 -3 0 38 c0 22
9 51 21 68 11 17 36 62 56 100 31 59 37 80 37 135 1 36 -3 73 -8 83 -7 15 -1
17 63 17 39 0 71 -1 71 -3z m660 -7 c0 -9 -40 -152 -101 -362 l-20 -68 -69 0
c-49 0 -70 4 -70 13 0 14 60 396 66 415 4 15 194 17 194 2z m770 -210 l0 -220
-176 0 -177 0 6 35 c3 20 14 119 24 220 l17 185 153 0 153 0 0 -220z m2867
163 c-39 -116 10 -234 115 -278 21 -8 49 -15 63 -15 23 0 25 -4 25 -45 l0 -45
-149 0 -149 0 -76 102 -76 102 0 118 0 118 133 0 134 0 -20 -57z m1423 21 l0
-36 -40 32 c-22 17 -40 34 -40 36 0 2 18 4 40 4 39 0 40 -1 40 -36z m620 -184
l0 -220 -75 0 -75 0 -21 43 c-42 84 -111 178 -142 194 -18 9 -54 22 -82 28
l-50 11 -3 82 -3 82 226 0 225 0 0 -220z m-2873 -27 c8 -21 31 -71 49 -111 19
-41 34 -75 34 -78 0 -2 -25 -4 -55 -4 l-55 0 0 115 c0 63 2 115 6 115 3 0 12
-17 21 -37z m1233 -128 c0 -51 -3 -65 -15 -65 -12 0 -15 13 -15 59 0 53 4 63
28 70 1 1 2 -28 2 -64z m-72 -38 l3 -67 34 0 35 0 0 -122 c0 -68 -5 -130 -10
-138 -7 -10 -10 19 -10 93 l0 107 -199 0 -200 0 -21 30 -21 30 150 0 151 0 0
64 c0 63 1 65 28 69 55 9 57 6 60 -66z m-4846 -67 l61 0 -7 -107 c-10 -171
-47 -527 -56 -536 -12 -13 -59 4 -65 24 -9 26 2 39 31 39 l24 0 0 260 0 260
-40 0 c-45 0 -47 5 -27 78 12 46 12 46 15 15 l3 -33 61 0z m738 -14 c0 -25
-12 -46 -26 -46 -11 0 -14 -22 -14 -103 0 -56 -5 -141 -11 -187 -6 -47 -16
-130 -23 -185 -10 -91 -13 -100 -33 -103 l-22 -3 -3 308 c-2 169 -1 314 1 321
5 18 131 17 131 -2z m-1500 -82 c0 -3 -16 -25 -35 -49 -42 -51 -67 -120 -99
-275 l-23 -115 -277 -3 -276 -2 0 225 0 225 355 0 c195 0 355 -3 355 -6z m710
-225 l0 -220 -22 3 c-18 2 -27 21 -56 108 l-35 104 27 113 c28 112 28 113 57
113 l29 0 0 -221z m1840 1 l0 -220 -220 0 -220 0 0 220 0 220 220 0 220 0 0
-220z m620 0 l0 -220 -225 0 -225 0 0 220 0 220 225 0 225 0 0 -220z m1541 0
c60 -118 109 -216 109 -217 0 -11 -46 2 -84 23 -32 18 -68 28 -112 32 l-64 5
0 189 c0 186 0 189 21 186 16 -2 46 -52 130 -218z m909 100 l0 -120 -36 -40
c-20 -22 -40 -40 -45 -40 -9 0 -239 302 -239 313 0 4 72 7 160 7 l160 0 0
-120z m1840 -100 l0 -220 -110 0 c-81 0 -110 3 -110 13 0 6 7 48 16 92 17 88
13 183 -11 275 -8 30 -15 56 -15 58 0 1 52 2 115 2 l115 0 0 -220z m-2602
-295 c20 -43 13 -63 -8 -25 -21 39 -24 50 -12 50 5 0 14 -11 20 -25z m-5028
-295 l0 -220 -270 0 -270 0 0 220 0 220 270 0 270 0 0 -220z m930 210 c0 -5
-7 -7 -15 -4 -8 4 -15 8 -15 10 0 2 7 4 15 4 8 0 15 -4 15 -10z m650 -12 c0
-13 -3 -33 -6 -46 -9 -33 -34 -9 -34 34 0 27 4 34 20 34 14 0 20 -7 20 -22z
m880 -12 c0 -18 -16 -69 -36 -112 -20 -43 -49 -127 -63 -186 l-26 -108 -66 0
-66 0 -7 77 c-3 42 -6 141 -6 220 l0 143 135 0 135 0 0 -34z m610 -186 l0
-220 -105 0 c-77 0 -105 3 -106 13 -1 6 0 50 1 96 2 82 11 131 51 264 l21 67
69 0 69 0 0 -220z m1524 173 c-8 -58 -67 -230 -99 -293 l-24 -45 -1 193 0 192
66 0 65 0 -7 -47z m3646 -173 l0 -220 -445 0 -445 0 0 76 c0 68 25 319 35 352
4 9 98 12 430 12 l425 0 0 -220z m-3102 82 c23 -49 53 -129 68 -178 14 -49 28
-97 31 -106 5 -16 -3 -18 -76 -18 l-82 0 3 195 c2 107 6 195 9 195 3 0 25 -40
47 -88z m-2808 -347 c0 -4 -7 -20 -16 -36 -14 -27 -19 -30 -57 -27 -39 3 -42
5 -45 36 l-3 32 60 0 c34 0 61 -2 61 -5z m2910 -7 c-1 -50 -11 -58 -70 -58
-51 0 -58 2 -68 25 -7 14 -12 30 -12 35 0 6 34 10 75 10 53 0 75 -4 75 -12z
m-2950 -105 c1 -18 -55 -173 -62 -173 -5 0 -8 26 -8 59 0 32 -3 73 -6 90 -6
31 -6 31 35 31 22 0 41 -3 41 -7z m2249 -98 c18 -55 43 -152 56 -215 l22 -115
-925 -3 c-509 -1 -927 -1 -928 1 -2 1 19 79 46 172 30 99 50 188 50 217 l0 48
823 -2 822 -3 34 -100z m681 98 c0 -5 -9 -45 -19 -91 -18 -80 -31 -113 -31
-80 0 9 -11 52 -23 97 l-24 81 49 0 c26 0 48 -3 48 -7z m2390 -213 l0 -220
-130 0 -130 0 0 220 0 220 130 0 130 0 0 -220z m-7521 -82 c1 -86 -3 -138 -9
-138 -6 0 -10 60 -9 163 1 96 4 152 9 137 4 -14 8 -87 9 -162z m4536 -200 c3
-13 9 -55 13 -95 l8 -72 -70 -4 c-91 -6 -1876 -5 -1876 1 0 2 7 27 14 55 8 29
20 71 26 95 l11 42 934 0 935 0 5 -22z"/>
<path d="M6002 8617 l3 -262 450 0 450 0 3 263 2 262 -455 0 -455 -1 2 -262z
m866 1 l-3 -223 -412 -3 -413 -2 0 225 0 225 415 0 415 0 -2 -222z"/>
<path d="M6980 8585 l0 -265 260 0 260 0 0 265 0 265 -260 0 -260 0 0 -265z
m480 0 l0 -225 -220 0 -220 0 0 225 0 225 220 0 220 0 0 -225z"/>
<path d="M7597 8843 c-4 -3 -7 -122 -7 -264 l0 -258 263 2 262 2 0 260 0 260
-256 3 c-140 1 -258 -1 -262 -5z m478 -258 l0 -220 -220 0 -220 0 -3 210 c-1
115 0 215 3 222 3 11 51 13 222 11 l218 -3 0 -220z"/>
<path d="M8210 8585 l0 -265 260 1 260 0 -2 262 -3 262 -257 3 -258 2 0 -265z
m475 0 l0 -220 -217 -3 -218 -2 0 225 0 225 218 -2 217 -3 0 -220z"/>
<path d="M8820 8585 l0 -265 260 0 260 0 0 265 0 265 -260 0 -260 0 0 -265z
m480 0 l0 -225 -220 0 -220 0 0 225 0 225 220 0 220 0 0 -225z"/>
<path d="M9436 8843 c-3 -4 -6 -122 -6 -264 l0 -258 263 2 262 2 0 260 0 260
-256 2 c-141 1 -259 -1 -263 -4z m479 -258 l0 -220 -220 0 -220 0 -3 210 c-1
115 0 215 3 222 3 11 51 13 222 11 l218 -3 0 -220z"/>
<path d="M10050 8586 l0 -265 260 0 260 0 -2 262 -3 262 -257 3 -258 3 0 -265z
m475 -1 l0 -220 -217 -3 -218 -2 0 225 0 225 218 -2 217 -3 0 -220z"/>
<path d="M10660 8585 l0 -265 260 0 260 0 0 265 0 265 -260 0 -260 0 0 -265z
m480 0 l0 -225 -220 0 -220 0 0 225 0 225 220 0 220 0 0 -225z"/>
<path d="M11277 8843 c-4 -3 -7 -122 -7 -264 l0 -258 263 2 262 2 0 260 0 260
-256 3 c-140 1 -258 -1 -262 -5z m478 -258 l0 -220 -220 0 -220 0 -3 210 c-1
115 0 215 3 222 3 11 51 13 222 11 l218 -3 0 -220z"/>
<path d="M11890 8586 l0 -265 260 0 260 0 -2 262 -3 262 -257 3 -258 2 0 -264z
m475 -1 l0 -220 -217 -3 -218 -2 0 225 0 225 218 -2 217 -3 0 -220z"/>
<path d="M12500 8585 l0 -265 260 0 260 0 0 265 0 265 -260 0 -260 0 0 -265z
m480 0 l0 -225 -220 0 -220 0 0 225 0 225 220 0 220 0 0 -225z"/>
<path d="M13116 8843 c-3 -4 -6 -122 -6 -264 l0 -258 263 2 262 2 0 260 0 260
-256 2 c-141 1 -259 -1 -263 -4z m479 -258 l0 -220 -220 0 -220 0 -3 210 c-1
115 0 215 3 222 3 11 51 13 222 11 l218 -3 0 -220z"/>
<path d="M13730 8586 l0 -265 260 0 260 0 -2 262 -3 262 -257 3 -258 3 0 -265z
m475 -1 l0 -220 -217 -3 -218 -2 0 225 0 225 218 -2 217 -3 0 -220z"/>
<path d="M14340 8585 l0 -265 260 0 260 0 0 265 0 265 -260 0 -260 0 0 -265z
m480 0 l0 -225 -220 0 -220 0 0 225 0 225 220 0 220 0 0 -225z"/>
<path d="M6000 8030 l0 -260 260 0 260 0 0 260 0 260 -260 0 -260 0 0 -260z
m480 0 l0 -220 -220 0 -220 0 0 220 0 220 220 0 220 0 0 -220z"/>
<path d="M6610 8030 l0 -260 263 2 262 3 3 258 3 257 -266 0 -265 0 0 -260z
m490 0 l0 -220 -225 0 -225 0 0 220 0 220 225 0 225 0 0 -220z"/>
<path d="M7230 8030 l0 -260 260 0 260 0 0 260 0 260 -260 0 -260 0 0 -260z
m480 0 l0 -220 -220 0 -220 0 0 220 0 220 220 0 220 0 0 -220z"/>
<path d="M9070 8030 l0 -260 260 0 260 0 0 260 0 260 -260 0 -260 0 0 -260z
m480 0 l0 -220 -220 0 -220 0 0 220 0 220 220 0 220 0 0 -220z"/>
<path d="M9680 8030 l0 -260 260 0 260 0 0 260 0 260 -260 0 -260 0 0 -260z
m480 0 l0 -220 -220 0 -220 0 0 220 0 220 220 0 220 0 0 -220z"/>
<path d="M10290 8030 l0 -260 263 2 262 3 3 258 3 257 -266 0 -265 0 0 -260z
m490 0 l0 -220 -225 0 -225 0 0 220 0 220 225 0 225 0 0 -220z"/>
<path d="M13360 8030 l0 -260 260 0 260 0 0 260 0 260 -260 0 -260 0 0 -260z
m480 0 l0 -220 -220 0 -220 0 0 220 0 220 220 0 220 0 0 -220z"/>
<path d="M13980 8015 l0 -265 440 0 440 0 0 265 0 265 -440 0 -440 0 0 -265z
m840 0 l0 -225 -400 0 -400 0 0 225 0 225 400 0 400 0 0 -225z"/>
<path d="M6000 7440 l0 -260 370 0 370 0 0 260 0 260 -370 0 -370 0 0 -260z
m700 0 l0 -220 -330 0 -330 0 0 220 0 220 330 0 330 0 0 -220z"/>
<path d="M9290 7440 l0 -260 260 0 260 0 0 260 0 260 -260 0 -260 0 0 -260z
m480 0 l0 -220 -220 0 -220 0 0 220 0 220 220 0 220 0 0 -220z"/>
<path d="M9905 7687 c-3 -7 -4 -123 -3 -257 l3 -245 263 -3 262 -2 0 260 0
260 -260 0 c-201 0 -262 -3 -265 -13z m485 -247 l0 -220 -225 0 -225 0 0 220
0 220 225 0 225 0 0 -220z"/>
<path d="M10520 7440 l0 -260 260 0 260 0 0 260 0 260 -260 0 -260 0 0 -260z
m480 0 l0 -220 -220 0 -220 0 0 220 0 220 220 0 220 0 0 -220z"/>
<path d="M14200 7440 l0 -260 70 0 70 0 0 -290 0 -290 260 0 260 0 0 550 0
550 -330 0 -330 0 0 -260z m620 -290 l0 -510 -220 0 -220 0 0 290 0 290 -70 0
-70 0 0 220 0 220 290 0 290 0 0 -510z"/>
<path d="M10050 6860 l0 -260 260 0 260 0 0 260 0 260 -260 0 -260 0 0 -260z
m480 0 l0 -220 -220 0 -220 0 0 220 0 220 220 0 220 0 0 -220z"/>
<path d="M10660 6860 l0 -259 260 -3 260 -3 0 263 0 262 -260 0 -260 0 0 -260z
m480 0 l0 -220 -220 0 -220 0 0 220 0 220 220 0 220 0 0 -220z"/>
<path d="M9783 6273 l2 -258 263 -3 262 -2 0 260 0 260 -265 0 -264 0 2 -257z
m487 -3 l0 -220 -222 2 -223 3 -3 218 -2 217 225 0 225 0 0 -220z"/>
<path d="M10400 6270 l0 -260 260 0 260 0 0 260 0 260 -260 0 -260 0 0 -260z
m480 0 l0 -220 -220 0 -220 0 0 220 0 220 220 0 220 0 0 -220z"/>
<path d="M6000 5680 l0 -260 260 0 260 0 0 260 0 260 -260 0 -260 0 0 -260z
m480 0 l0 -220 -220 0 -220 0 0 220 0 220 220 0 220 0 0 -220z"/>
<path d="M14340 5680 l0 -260 260 0 260 0 0 260 0 260 -260 0 -260 0 0 -260z
m480 0 l0 -220 -220 0 -220 0 0 220 0 220 220 0 220 0 0 -220z"/>
<path d="M16839 8566 c-180 -38 -314 -109 -435 -230 -192 -194 -288 -458 -314
-864 -17 -271 10 -564 76 -834 149 -606 495 -1006 873 -1010 49 0 112 5 142
12 462 109 809 767 836 1585 21 666 -163 1095 -549 1275 -119 56 -206 72 -393
76 -117 2 -191 -1 -236 -10z m214 -93 c31 -148 31 -149 6 -200 -54 -110 -15
-383 62 -437 20 -13 22 -26 27 -165 l5 -151 -94 0 c-222 0 -537 -53 -812 -137
-64 -20 -120 -33 -123 -30 -10 10 15 280 37 393 67 350 236 600 484 715 109
50 208 73 376 88 12 1 20 -17 32 -76z m182 56 c448 -75 710 -451 742 -1062 l6
-118 -27 10 c-14 6 -38 17 -54 25 -126 64 -467 136 -646 136 l-63 0 -7 151
c-7 142 -6 153 15 196 18 37 22 62 22 142 -1 137 -32 245 -83 291 -14 12 -60
200 -60 241 0 8 72 2 155 -12z m-90 -311 c42 -93 53 -251 23 -330 -14 -36 -32
-26 -57 31 -40 94 -50 249 -21 325 14 39 29 32 55 -26z m150 -738 c229 -16
402 -55 589 -133 l99 -41 -7 -140 c-34 -727 -351 -1343 -761 -1477 -143 -47
-311 -26 -455 58 -84 49 -242 206 -305 303 -196 300 -320 737 -328 1149 l-2
104 70 24 c235 80 568 142 835 156 113 6 138 6 265 -3z"/>
<path d="M17573 7306 c3 -7 13 -62 22 -122 14 -86 16 -147 12 -289 -3 -99 -8
-190 -12 -201 -5 -16 -2 -23 13 -26 26 -7 30 14 38 212 6 150 -2 276 -27 391
-9 39 -15 49 -31 49 -13 0 -18 -5 -15 -14z"/>
<path d="M17566 6553 c-5 -17 -3 -29 6 -34 19 -12 28 -11 28 4 0 6 3 22 6 35
5 17 2 22 -14 22 -13 0 -22 -9 -26 -27z"/>
<path d="M17517 6391 c-54 -153 -156 -340 -244 -449 -32 -39 -34 -45 -21 -58
13 -14 21 -8 66 53 101 136 178 281 236 442 21 59 24 76 14 83 -21 13 -22 12
-51 -71z"/>
<path d="M11205 8051 c-26 -7 -92 -37 -104 -47 -2 -2 1 -10 8 -17 9 -12 17
-11 50 5 22 11 65 22 96 25 44 5 55 9 53 22 -4 18 -54 24 -103 12z"/>
<path d="M4925 7865 l-220 -185 -107 0 c-146 0 -196 -12 -252 -61 -69 -61 -76
-96 -76 -368 0 -125 4 -241 10 -260 15 -52 56 -105 103 -132 l42 -24 465 -3
c347 -2 476 0 510 9 56 16 124 82 139 135 6 23 11 141 11 285 0 242 0 246 -25
296 -46 92 -117 123 -282 123 -122 0 -112 -22 -83 196 11 82 20 155 20 162 0
33 -52 -3 -255 -173z m187 -70 c-11 -77 -17 -143 -15 -147 2 -5 64 -8 136 -8
153 0 196 -14 243 -76 l29 -37 3 -246 c2 -135 0 -261 -3 -279 -7 -40 -59 -101
-102 -118 -26 -11 -129 -14 -493 -14 -432 0 -463 1 -498 19 -94 48 -102 78
-102 368 0 221 1 240 21 281 13 26 38 54 62 70 38 26 48 27 185 30 l145 4 121
102 c293 248 281 238 284 214 1 -13 -6 -86 -16 -163z"/>
<path d="M4748 7323 c4 -127 5 -133 32 -133 26 0 27 4 34 133 l6 107 -38 0
-38 0 4 -107z"/>
<path d="M4890 7315 l0 -25 115 0 115 0 0 25 0 25 -115 0 -115 0 0 -25z"/>
<path d="M4890 7195 l0 -25 115 0 115 0 0 25 0 25 -115 0 -115 0 0 -25z"/>
<path d="M4750 7135 c-26 -32 13 -81 48 -59 34 22 22 74 -18 74 -10 0 -23 -7
-30 -15z"/>
<path d="M8127 8023 c-4 -3 -7 -14 -7 -24 0 -24 -66 -79 -95 -79 -13 0 -35 4
-49 9 -18 7 -28 6 -36 -5 -10 -11 -6 -17 23 -29 20 -8 46 -15 57 -15 32 0 82
25 108 52 28 31 42 98 20 98 -8 0 -18 -3 -21 -7z"/>
<path d="M8650 7717 c0 -9 -21 -12 -77 -12 -87 0 -115 -7 -107 -28 4 -11 24
-14 82 -13 42 0 92 -3 110 -7 l32 -9 0 41 c0 34 -3 41 -20 41 -11 0 -20 -6
-20 -13z"/>
<path d="M12946 7691 c-3 -5 -1 -22 4 -37 40 -121 88 -460 96 -689 3 -88 10
-177 15 -197 16 -64 91 -137 110 -107 13 21 12 23 -20 42 -46 27 -59 80 -66
262 -8 223 -47 519 -85 650 -4 17 -11 42 -14 58 -6 26 -29 37 -40 18z"/>
<path d="M13273 7523 c-13 -2 -23 -12 -23 -22 0 -14 10 -17 53 -17 33 0 67 -8
94 -22 34 -18 43 -19 52 -8 8 10 8 16 -1 23 -43 34 -126 56 -175 46z"/>
<path d="M13516 7432 c-2 -4 5 -39 16 -77 31 -103 30 -358 -1 -598 -25 -197
-24 -211 29 -262 25 -24 30 -26 36 -12 3 9 -3 27 -14 42 l-20 25 29 93 c62
197 60 185 39 190 -15 4 -23 -6 -40 -52 l-20 -56 5 60 c28 295 25 469 -11 597
-15 52 -34 72 -48 50z"/>
<path d="M11617 7339 c-67 -16 -157 -73 -157 -99 0 -21 23 -19 51 5 42 34 90
54 156 62 42 4 53 9 51 22 -4 19 -46 23 -101 10z"/>
<path d="M7695 7277 c-31 -24 -9 -35 57 -30 55 4 67 2 100 -20 29 -20 39 -23
47 -13 13 15 -19 49 -62 65 -39 15 -120 14 -142 -2z"/>
<path d="M6901 6893 c-53 -263 -52 -306 8 -585 23 -103 41 -206 41 -228 0 -49
-32 -148 -67 -208 -21 -36 -23 -46 -12 -52 7 -5 18 -5 25 1 21 17 75 147 86
207 12 64 11 73 -52 372 -18 89 -30 175 -30 223 0 77 0 78 36 110 46 41 100
66 142 67 26 0 32 4 32 21 0 20 -4 21 -51 16 -28 -4 -71 -18 -95 -32 -24 -14
-44 -23 -44 -19 0 3 14 71 30 151 35 169 35 173 12 173 -15 0 -24 -33 -61
-217z"/>
<path d="M8350 7081 c-14 -4 -25 -12 -24 -19 2 -30 4 -31 30 -22 33 13 126 13
160 0 26 -10 43 -2 44 22 0 22 -150 36 -210 19z"/>
<path d="M12997 6652 c-3 -4 6 -41 20 -82 39 -115 49 -227 31 -334 -12 -76
-12 -89 0 -93 20 -8 30 13 39 87 9 85 6 205 -7 266 -26 117 -64 188 -83 156z"/>
<path d="M9304 6518 c-66 -45 -107 -113 -112 -189 -4 -57 -4 -59 24 -70 45
-17 88 -17 92 2 2 12 -9 18 -40 25 -41 9 -43 11 -40 42 5 69 78 163 137 178
16 4 25 13 25 25 0 28 -31 24 -86 -13z"/>
<path d="M13450 6350 c0 -32 -7 -80 -16 -106 -16 -46 -9 -74 15 -60 18 11 41
106 41 168 0 51 -2 58 -20 58 -18 0 -20 -7 -20 -60z"/>
<path d="M7504 6318 c1 -51 -4 -72 -26 -109 -23 -38 -25 -49 -14 -58 24 -20
61 37 76 121 13 65 5 108 -19 108 -15 0 -17 -9 -17 -62z"/>
<path d="M12245 6270 c-10 -16 87 -179 102 -173 20 8 17 19 -29 104 -41 75
-59 92 -73 69z"/>
<path d="M13745 6228 c-8 -28 -15 -53 -15 -54 0 -1 9 -4 19 -7 16 -4 21 3 31
44 20 83 -11 98 -35 17z"/>
<path d="M7736 6028 c-31 -47 -49 -148 -42 -238 7 -100 34 -195 56 -195 18 0
18 21 -4 100 -22 82 -20 196 5 265 11 30 21 61 22 69 3 24 -21 23 -37 -1z"/>
<path d="M7114 5974 c-13 -52 33 -238 63 -257 5 -3 14 -2 21 2 9 6 6 22 -13
65 -17 39 -28 85 -32 137 -4 56 -10 79 -19 79 -8 0 -17 -12 -20 -26z"/>
<path d="M8396 5843 c-10 -70 -33 -134 -67 -188 -24 -37 -27 -50 -18 -61 30
-36 119 154 119 252 0 62 -26 60 -34 -3z"/>
<path d="M6752 5638 c8 -94 59 -187 82 -149 3 5 -5 33 -18 62 -14 30 -28 75
-31 102 -5 32 -12 47 -23 47 -12 0 -14 -11 -10 -62z"/>
<path d="M11669 5594 c-29 -12 -36 -20 -32 -35 4 -14 11 -18 22 -14 9 4 29 12
44 17 17 6 27 16 25 26 -4 22 -18 23 -59 6z"/>
<path d="M8774 5348 c0 -100 -4 -134 -21 -180 -19 -50 -20 -57 -5 -63 19 -7
28 5 48 70 33 107 30 295 -4 295 -15 0 -17 -15 -18 -122z"/>
<path d="M10314 4963 c-49 -54 -93 -103 -99 -109 -5 -6 -40 -45 -78 -86 l-67
-76 -138 -4 c-129 -3 -140 -5 -185 -31 -26 -16 -60 -47 -75 -69 l-27 -41 -3
-266 c-3 -226 -1 -272 13 -308 20 -51 80 -105 134 -121 52 -16 919 -17 976 -1
26 7 57 28 87 59 64 67 71 105 66 389 -4 242 -7 259 -62 319 -47 52 -92 66
-232 70 l-131 4 -23 137 c-32 196 -40 231 -55 231 -7 0 -52 -44 -101 -97z
m105 -63 c6 -41 19 -114 27 -162 l16 -88 128 0 c145 0 180 -9 231 -57 56 -53
61 -85 57 -354 l-3 -236 -28 -42 c-54 -81 -48 -81 -570 -81 -362 0 -464 3
-490 14 -39 16 -94 76 -104 114 -10 35 -10 479 -1 514 12 40 57 89 103 109 32
15 66 19 171 19 l131 0 99 112 c54 61 122 136 149 166 28 30 52 59 54 65 7 18
18 -16 30 -93z"/>
<path d="M10308 4453 c-14 -43 -51 -150 -82 -237 -31 -87 -56 -161 -56 -162 0
-2 14 -4 30 -4 17 0 30 2 30 4 0 2 36 107 80 234 44 127 80 233 80 237 0 3
-13 5 -28 5 -26 0 -30 -6 -54 -77z"/>
<path d="M10023 4353 c-106 -42 -113 -46 -113 -72 0 -25 6 -31 68 -53 37 -14
91 -35 120 -47 l52 -21 0 29 c0 26 -5 30 -77 56 -43 15 -81 31 -85 34 -4 4 31
20 77 36 79 27 85 31 85 57 0 15 -3 28 -7 27 -5 0 -59 -21 -120 -46z"/>
<path d="M10410 4372 c0 -25 6 -30 80 -56 44 -15 78 -32 75 -36 -2 -4 -38 -19
-80 -35 -65 -23 -75 -30 -75 -51 0 -13 5 -24 11 -24 6 0 58 18 115 41 104 41
105 41 102 72 -3 30 -8 34 -108 73 -58 24 -108 43 -112 43 -5 1 -8 -11 -8 -27z"/>
</g>
</svg>
